<svg width="820" height="520" xmlns="http://www.w3.org/2000/svg">
  <defs>
    <style>
      .bg { fill: #1e1e2e; }
      .bar { fill: #313244; }
      .title { fill: #cdd6f4; font-family: 'SF Mono', 'Fira Code', monospace; font-size: 13px; }
      .cmd { fill: #a6e3a1; font-family: 'SF Mono', 'Fira Code', monospace; font-size: 13px; }
      .prompt { fill: #89b4fa; font-family: 'SF Mono', 'Fira Code', monospace; font-size: 13px; }
      .key { fill: #89b4fa; font-family: 'SF Mono', 'Fira Code', monospace; font-size: 13px; }
      .str { fill: #a6e3a1; font-family: 'SF Mono', 'Fira Code', monospace; font-size: 13px; }
      .num { fill: #fab387; font-family: 'SF Mono', 'Fira Code', monospace; font-size: 13px; }
      .bool { fill: #cba6f7; font-family: 'SF Mono', 'Fira Code', monospace; font-size: 13px; }
      .punc { fill: #cdd6f4; font-family: 'SF Mono', 'Fira Code', monospace; font-size: 13px; }
      .dot-red { fill: #f38ba8; }
      .dot-yellow { fill: #f9e2af; }
      .dot-green { fill: #a6e3a1; }
    </style>
  </defs>
  <rect class="bg" width="820" height="520" rx="10"/>
  <rect class="bar" width="820" height="36" rx="10"/>
  <rect class="bg" x="0" y="26" width="820" height="10"/>
  <circle class="dot-red" cx="20" cy="18" r="6"/>
  <circle class="dot-yellow" cx="40" cy="18" r="6"/>
  <circle class="dot-green" cx="60" cy="18" r="6"/>
  <text class="title" x="370" y="22" text-anchor="middle">NinjaScope — Ticker Lookup</text>

  <text class="prompt" x="20" y="60">$</text>
  <text class="cmd" x="35" y="60">curl 'http://localhost:3000/api/v1/markets/ticker/INJ-USDT'</text>

  <text class="punc" x="20" y="90">{</text>
  <text class="key" x="35" y="110">"success"</text><text class="punc" x="120" y="110">:</text><text class="bool" x="130" y="110">true</text><text class="punc" x="162" y="110">,</text>
  <text class="key" x="35" y="130">"data"</text><text class="punc" x="90" y="130">: {</text>

  <text class="key" x="55" y="155">"marketId"</text><text class="punc" x="145" y="155">:</text><text class="str" x="155" y="155">"0xa508cb3292...c844c0"</text><text class="punc" x="410" y="155">,</text>
  <text class="key" x="55" y="175">"ticker"</text><text class="punc" x="125" y="175">:</text><text class="str" x="135" y="175">"INJ/USDT"</text><text class="punc" x="250" y="175">,</text>
  <text class="key" x="55" y="195">"type"</text><text class="punc" x="110" y="195">:</text><text class="str" x="120" y="195">"spot"</text><text class="punc" x="180" y="195">,</text>

  <text class="key" x="55" y="220">"baseTokenMeta"</text><text class="punc" x="185" y="220">: {</text>
  <text class="key" x="75" y="240">"name"</text><text class="punc" x="125" y="240">:</text><text class="str" x="135" y="240">"Injective"</text><text class="punc" x="240" y="240">,</text>
  <text class="key" x="75" y="260">"symbol"</text><text class="punc" x="145" y="260">:</text><text class="str" x="155" y="260">"INJ"</text><text class="punc" x="200" y="260">,</text>
  <text class="key" x="75" y="280">"decimals"</text><text class="punc" x="160" y="280">:</text><text class="num" x="170" y="280">18</text>
  <text class="punc" x="55" y="300">}</text><text class="punc" x="65" y="300">,</text>

  <text class="key" x="55" y="325">"quoteTokenMeta"</text><text class="punc" x="195" y="325">: {</text>
  <text class="key" x="75" y="345">"name"</text><text class="punc" x="125" y="345">:</text><text class="str" x="135" y="345">"Tether"</text><text class="punc" x="210" y="345">,</text>
  <text class="key" x="75" y="365">"symbol"</text><text class="punc" x="145" y="365">:</text><text class="str" x="155" y="365">"USDT"</text><text class="punc" x="210" y="365">,</text>
  <text class="key" x="75" y="385">"decimals"</text><text class="punc" x="160" y="385">:</text><text class="num" x="170" y="385">6</text>
  <text class="punc" x="55" y="405">}</text><text class="punc" x="65" y="405">,</text>

  <text class="key" x="55" y="430">"makerFeeRate"</text><text class="punc" x="175" y="430">:</text><text class="str" x="185" y="430">"0"</text><text class="punc" x="210" y="430">,</text>
  <text class="key" x="55" y="450">"takerFeeRate"</text><text class="punc" x="175" y="450">:</text><text class="str" x="185" y="450">"0.0005"</text>

  <text class="punc" x="35" y="475">}</text>
  <text class="punc" x="20" y="495">}</text>
</svg>
