<svg width="820" height="420" xmlns="http://www.w3.org/2000/svg">
  <defs>
    <style>
      .bg { fill: #1e1e2e; }
      .bar { fill: #313244; }
      .title { fill: #cdd6f4; font-family: 'SF Mono', 'Fira Code', monospace; font-size: 13px; }
      .cmd { fill: #a6e3a1; font-family: 'SF Mono', 'Fira Code', monospace; font-size: 13px; }
      .prompt { fill: #89b4fa; font-family: 'SF Mono', 'Fira Code', monospace; font-size: 13px; }
      .txt { fill: #cdd6f4; font-family: 'SF Mono', 'Fira Code', monospace; font-size: 13px; }
      .header { fill: #cba6f7; font-family: 'SF Mono', 'Fira Code', monospace; font-size: 13px; font-weight: bold; }
      .good { fill: #a6e3a1; font-family: 'SF Mono', 'Fira Code', monospace; font-size: 13px; }
      .warn { fill: #f9e2af; font-family: 'SF Mono', 'Fira Code', monospace; font-size: 13px; }
      .bad { fill: #f38ba8; font-family: 'SF Mono', 'Fira Code', monospace; font-size: 13px; }
      .dim { fill: #6c7086; font-family: 'SF Mono', 'Fira Code', monospace; font-size: 13px; }
      .dot-red { fill: #f38ba8; }
      .dot-yellow { fill: #f9e2af; }
      .dot-green { fill: #a6e3a1; }
    </style>
  </defs>
  <rect class="bg" width="820" height="420" rx="10"/>
  <rect class="bar" width="820" height="36" rx="10"/>
  <rect class="bg" x="0" y="26" width="820" height="10"/>
  <circle class="dot-red" cx="20" cy="18" r="6"/>
  <circle class="dot-yellow" cx="40" cy="18" r="6"/>
  <circle class="dot-green" cx="60" cy="18" r="6"/>
  <text class="title" x="370" y="22" text-anchor="middle">NinjaScope — Market Rankings</text>

  <text class="prompt" x="20" y="60">$</text>
  <text class="cmd" x="35" y="60">curl '.../markets/rankings?sort=health&amp;limit=5'</text>

  <!-- Table header -->
  <text class="header" x="20" y="100">#</text>
  <text class="header" x="45" y="100">Ticker</text>
  <text class="header" x="185" y="100">Type</text>
  <text class="header" x="310" y="100">Health</text>
  <text class="header" x="410" y="100">Rating</text>
  <text class="header" x="540" y="100">Spread %</text>
  <text class="header" x="680" y="100">Depth</text>
  <line x1="20" y1="110" x2="790" y2="110" stroke="#45475a" stroke-width="1"/>

  <!-- Row 1 -->
  <text class="txt" x="20" y="140">1</text>
  <text class="txt" x="45" y="140">WETH/USDT</text>
  <text class="dim" x="185" y="140">spot</text>
  <text class="good" x="310" y="140">96</text>
  <rect x="340" y="127" width="50" height="18" rx="3" fill="#a6e3a1" opacity="0.2"/>
  <text class="good" x="345" y="140">excellent</text>
  <text class="good" x="540" y="140">0.0154%</text>
  <text class="txt" x="680" y="140">1,915</text>

  <!-- Row 2 -->
  <text class="txt" x="20" y="180">2</text>
  <text class="txt" x="45" y="180">INJ/USDT</text>
  <text class="dim" x="185" y="180">spot</text>
  <text class="good" x="310" y="180">84</text>
  <rect x="340" y="167" width="50" height="18" rx="3" fill="#a6e3a1" opacity="0.2"/>
  <text class="good" x="345" y="180">excellent</text>
  <text class="good" x="540" y="180">0.2013%</text>
  <text class="txt" x="680" y="180">13,854</text>

  <!-- Row 3 -->
  <text class="txt" x="20" y="220">3</text>
  <text class="txt" x="45" y="220">LINK/USDT</text>
  <text class="dim" x="185" y="220">spot</text>
  <text class="bad" x="310" y="220">19</text>
  <rect x="340" y="207" width="30" height="18" rx="3" fill="#f38ba8" opacity="0.2"/>
  <text class="bad" x="345" y="220">poor</text>
  <text class="bad" x="540" y="220">199.04%</text>
  <text class="txt" x="680" y="220">11</text>

  <!-- Row 4 -->
  <text class="txt" x="20" y="260">4</text>
  <text class="txt" x="45" y="260">MATIC/USDT</text>
  <text class="dim" x="185" y="260">spot</text>
  <text class="bad" x="310" y="260">13</text>
  <rect x="340" y="247" width="30" height="18" rx="3" fill="#f38ba8" opacity="0.2"/>
  <text class="bad" x="345" y="260">poor</text>
  <text class="bad" x="540" y="260">189.36%</text>
  <text class="txt" x="680" y="260">5</text>

  <!-- Row 5 -->
  <text class="txt" x="20" y="300">5</text>
  <text class="txt" x="45" y="300">SUSHI/USDT</text>
  <text class="dim" x="185" y="300">spot</text>
  <text class="bad" x="310" y="300">13</text>
  <rect x="340" y="287" width="30" height="18" rx="3" fill="#f38ba8" opacity="0.2"/>
  <text class="bad" x="345" y="300">poor</text>
  <text class="bad" x="540" y="300">200.00%</text>
  <text class="txt" x="680" y="300">2</text>

  <line x1="20" y1="320" x2="790" y2="320" stroke="#45475a" stroke-width="1"/>
  <text class="dim" x="20" y="350">Sortable by: ?sort=health | spread | depth</text>
  <text class="dim" x="20" y="375">Filter by:   ?type=spot | derivative</text>
  <text class="dim" x="20" y="400">Limit:       ?limit=N (max 100)</text>
</svg>
